<svg xmlns="http://www.w3.org/2000/svg" viewBox="0 0 512 512" width="512" height="512">
  <defs>
    <linearGradient id="g" x1="0" y1="0" x2="1" y2="1">
      <stop offset="0" stop-color="#4f46e5"/>
      <stop offset="1" stop-color="#8b5cf6"/>
    </linearGradient>
  </defs>
  <rect width="512" height="512" rx="112" fill="url(#g)"/>
  <g fill="none" stroke="#fff" stroke-width="22" stroke-linecap="round" stroke-linejoin="round">
    <path d="M256 132c-46 0-78 30-78 70 0 10 2 19 7 28-16 12-26 31-26 52 0 26 16 48 40 57 4 28 30 49 57 49 18 0 33-9 42-22"/>
    <path d="M256 132c46 0 78 30 78 70 0 10-2 19-7 28 16 12 26 31 26 52 0 26-16 48-40 57-4 28-30 49-57 49"/>
    <path d="M256 132v256"/>
    <circle cx="196" cy="210" r="10" fill="#fff"/>
    <circle cx="316" cy="262" r="10" fill="#fff"/>
    <circle cx="206" cy="320" r="10" fill="#fff"/>
  </g>
</svg>
